<?xml version="1.0" encoding="UTF-8"?>
<svg xmlns="http://www.w3.org/2000/svg" id="Capa_1" version="1.1" viewBox="0 0 1000 445.36">
  <defs>
    <style>
      .st0 {
        fill: #fff;
      }
    </style>
  </defs>
  <g>
    <polygon class="st0" points="471 187.97 423.96 80.19 391.76 80.19 461.95 233.13 479.02 233.13 549.21 80.19 518.3 80.19 471 187.97"></polygon>
    <rect class="st0" x="577.54" y="80.19" width="28.98" height="152.94"></rect>
    <polygon class="st0" points="761.39 80.19 714.09 187.97 667.05 80.19 634.85 80.19 705.05 233.13 722.11 233.13 792.3 80.19 761.39 80.19"></polygon>
    <path class="st0" d="M930.43,80.19v20.8c-5.26-6.97-11.86-12.57-19.8-16.77-9.13-4.83-19.48-7.24-31.07-7.24-14.17,0-26.88,3.54-38.15,10.62-11.27,7.08-20.18,16.64-26.73,28.66-6.55,12.02-9.82,25.55-9.82,40.57s3.27,28.55,9.82,40.57c6.55,12.02,15.51,21.52,26.89,28.5,11.37,6.98,24.04,10.46,37.99,10.46,11.8,0,22.27-2.41,31.39-7.24,7.84-4.15,14.33-9.71,19.48-16.64v20.66h29.3V80.19h-29.3ZM919.16,194.33c-8.8,9.77-20.4,14.65-34.77,14.65-9.66,0-18.25-2.25-25.76-6.76-7.52-4.51-13.36-10.68-17.55-18.51-4.19-7.83-6.28-16.9-6.28-27.21s2.09-19.05,6.28-26.89c4.18-7.83,9.98-14.01,17.39-18.51,7.4-4.51,15.94-6.76,25.6-6.76s18.14,2.2,25.44,6.6c7.29,4.4,12.93,10.52,16.9,18.35,3.97,7.84,5.96,17.01,5.96,27.53,0,15.24-4.4,27.75-13.2,37.51Z"></path>
    <path class="st0" d="M439.07,297.36c2.83-1.65,6.06-2.48,9.69-2.48,3.07,0,5.87.54,8.42,1.63,2.54,1.09,4.7,2.69,6.48,4.78l7.27-7.27c-2.75-3.15-6.02-5.55-9.81-7.21-3.8-1.65-7.91-2.48-12.35-2.48-5.65,0-10.76,1.31-15.32,3.94-4.56,2.62-8.16,6.2-10.78,10.72-2.62,4.52-3.94,9.61-3.94,15.26s1.31,10.64,3.94,15.2c2.62,4.56,6.22,8.18,10.78,10.84,4.56,2.66,9.67,4,15.32,4,4.44,0,8.58-.85,12.41-2.54,3.83-1.7,7.09-4.08,9.75-7.15l-7.15-7.27c-1.86,2.1-4.06,3.69-6.6,4.78-2.54,1.09-5.35,1.63-8.42,1.63-3.63,0-6.86-.85-9.69-2.54-2.83-1.7-5.05-4-6.66-6.9-1.62-2.91-2.42-6.26-2.42-10.05s.81-7.15,2.42-10.05c1.61-2.91,3.83-5.19,6.66-6.84Z"></path>
    <path class="st0" d="M523.31,288.27c-4.56-2.62-9.63-3.94-15.2-3.94s-10.74,1.33-15.26,4c-4.52,2.66-8.11,6.24-10.78,10.72-2.66,4.48-4,9.51-4,15.08s1.33,10.76,4,15.32c2.66,4.56,6.26,8.18,10.78,10.84,4.52,2.66,9.61,4,15.26,4s10.64-1.33,15.2-4c4.56-2.66,8.18-6.28,10.84-10.84,2.66-4.56,4-9.67,4-15.32s-1.33-10.62-4-15.14c-2.66-4.52-6.28-8.09-10.84-10.72ZM524.46,324.24c-1.62,2.95-3.84,5.27-6.66,6.96-2.83,1.7-6.06,2.54-9.69,2.54s-6.86-.85-9.69-2.54c-2.83-1.7-5.05-4.02-6.66-6.96-1.62-2.95-2.42-6.32-2.42-10.11s.81-7.03,2.42-9.93c1.61-2.91,3.83-5.19,6.66-6.84,2.83-1.65,6.06-2.48,9.69-2.48s6.84.83,9.63,2.48c2.79,1.66,5.01,3.94,6.66,6.84,1.65,2.91,2.48,6.22,2.48,9.93s-.81,7.17-2.42,10.11Z"></path>
    <path class="st0" d="M592.34,287.61c-3.35-2.18-7.21-3.27-11.57-3.27s-8.28.99-11.75,2.97c-2.62,1.49-4.8,3.38-6.54,5.67v-7.43h-10.9v57.53h10.9v-33.55c0-2.91.65-5.49,1.94-7.75,1.29-2.26,3.07-4.04,5.33-5.33,2.26-1.29,4.84-1.94,7.75-1.94,4.36,0,7.91,1.41,10.66,4.24,2.74,2.83,4.12,6.42,4.12,10.78v33.55h10.9v-35.73c0-3.96-.97-7.69-2.91-11.2-1.94-3.51-4.58-6.36-7.93-8.54Z"></path>
    <path class="st0" d="M630.37,295.9c1.65-1.09,4.06-1.63,7.21-1.63,2.99,0,5.67.57,8.05,1.7,2.38,1.13,4.38,2.75,5.99,4.84l7.02-7.02c-2.26-3.15-5.15-5.51-8.66-7.08-3.51-1.57-7.53-2.36-12.05-2.36-4.28,0-7.93.69-10.96,2.06-3.03,1.37-5.39,3.33-7.08,5.87-1.7,2.54-2.54,5.55-2.54,9.02s.75,6.26,2.24,8.36c1.49,2.1,3.41,3.75,5.75,4.97,2.34,1.21,4.82,2.2,7.45,2.97,2.62.77,5.11,1.53,7.45,2.3,2.34.77,4.26,1.74,5.75,2.91,1.49,1.17,2.24,2.81,2.24,4.9s-.93,3.74-2.79,4.91c-1.86,1.17-4.48,1.76-7.87,1.76s-6.46-.62-9.2-1.88c-2.75-1.25-5.17-3.17-7.27-5.75l-7.02,7.02c1.78,2.18,3.88,4.06,6.3,5.63,2.42,1.57,5.07,2.79,7.93,3.63,2.87.85,5.91,1.27,9.14,1.27,6.46,0,11.61-1.57,15.44-4.72,3.83-3.15,5.75-7.43,5.75-12.84,0-3.55-.75-6.42-2.24-8.6-1.5-2.18-3.41-3.92-5.75-5.21-2.34-1.29-4.81-2.32-7.39-3.09-2.58-.77-5.07-1.51-7.45-2.24-2.38-.73-4.3-1.61-5.75-2.66-1.45-1.05-2.18-2.54-2.18-4.48s.83-3.45,2.48-4.54Z"></path>
    <path class="st0" d="M709.03,318.49c0,4.76-1.21,8.5-3.63,11.2-2.42,2.71-5.77,4.06-10.05,4.06-2.83,0-5.29-.61-7.39-1.82-2.1-1.21-3.69-2.97-4.78-5.27-1.09-2.3-1.64-5.03-1.64-8.18v-32.94h-10.9v33.43c0,5.01,1.05,9.41,3.15,13.2,2.1,3.8,5.03,6.76,8.78,8.9,3.75,2.14,8.01,3.21,12.78,3.21s9.1-1.07,12.78-3.21c3.67-2.14,6.56-5.11,8.66-8.9,2.1-3.79,3.15-8.19,3.15-13.2v-33.43h-10.9v32.94Z"></path>
    <rect class="st0" x="735.8" y="256.6" width="10.9" height="86.47"></rect>
    <polygon class="st0" points="783.64 261.45 772.74 261.45 772.74 285.55 758.57 285.55 758.57 295.48 772.74 295.48 772.74 343.08 783.64 343.08 783.64 295.48 797.81 295.48 797.81 285.55 783.64 285.55 783.64 261.45"></polygon>
    <path class="st0" d="M815.25,260.11c-2.02,0-3.68.67-4.97,2-1.29,1.33-1.94,2.97-1.94,4.91s.64,3.69,1.94,5.03c1.29,1.33,2.95,2,4.97,2s3.67-.67,4.97-2c1.29-1.33,1.94-3.01,1.94-5.03s-.65-3.57-1.94-4.91c-1.29-1.33-2.95-2-4.97-2Z"></path>
    <rect class="st0" x="809.8" y="285.55" width="10.9" height="57.53"></rect>
    <path class="st0" d="M878.77,287.61c-3.35-2.18-7.21-3.27-11.57-3.27s-8.28.99-11.75,2.97c-2.62,1.49-4.8,3.38-6.54,5.67v-7.43h-10.9v57.53h10.9v-33.55c0-2.91.65-5.49,1.94-7.75,1.29-2.26,3.07-4.04,5.33-5.33,2.26-1.29,4.84-1.94,7.75-1.94,4.36,0,7.91,1.41,10.66,4.24,2.74,2.83,4.12,6.42,4.12,10.78v33.55h10.9v-35.73c0-3.96-.97-7.69-2.91-11.2-1.94-3.51-4.58-6.36-7.93-8.54Z"></path>
    <path class="st0" d="M948.83,293.22c-1.95-2.59-4.39-4.69-7.39-6.22-3.47-1.77-7.47-2.66-11.99-2.66-5.25,0-9.95,1.27-14.11,3.81-4.16,2.54-7.45,5.98-9.87,10.29-2.42,4.32-3.63,9.23-3.63,14.71s1.21,10.44,3.63,14.84c2.42,4.4,5.71,7.85,9.87,10.36,4.16,2.5,8.86,3.75,14.11,3.75,4.44,0,8.4-.89,11.87-2.66,3.06-1.57,5.54-3.72,7.51-6.39v7.72c0,5.25-1.72,9.43-5.15,12.54-3.43,3.11-8.1,4.66-13.99,4.66-4.44,0-8.28-.79-11.51-2.36-1.81-.88-3.49-1.99-5.02-3.32-2.06-1.79-5.15-1.67-7.06.27-2.03,2.06-1.95,5.37.13,7.38,2.15,2.08,4.67,3.8,7.54,5.18,4.56,2.18,9.79,3.27,15.68,3.27s11.24-1.17,15.81-3.51c4.56-2.34,8.11-5.57,10.66-9.69,2.54-4.12,3.81-8.92,3.81-14.41v-55.23h-10.9v7.68ZM947.26,323.03c-1.45,2.79-3.53,4.95-6.24,6.48-2.71,1.54-5.83,2.3-9.39,2.3s-6.84-.79-9.63-2.36c-2.79-1.57-4.97-3.77-6.54-6.6-1.57-2.82-2.36-6.06-2.36-9.69s.79-6.84,2.36-9.63,3.73-4.97,6.48-6.54c2.74-1.57,5.93-2.36,9.57-2.36s6.78.79,9.45,2.36c2.66,1.57,4.74,3.75,6.24,6.54,1.49,2.79,2.24,6.04,2.24,9.75s-.73,6.96-2.18,9.75Z"></path>
  </g>
  <path class="st0" d="M356.48,226.72L223.92,94.15c-11.67-11.67-30.66-11.67-42.33,0L49.03,226.72c-5.65,5.65-8.76,13.16-8.76,21.15s3.11,15.51,8.76,21.16l90.93,90.92,49.27-49.28-62.79-62.8,76.31-76.32,76.32,76.32-62.8,62.8,49.28,49.28,90.93-90.93c5.65-5.65,8.76-13.17,8.76-21.16s-3.11-15.5-8.76-21.15Z"></path>
</svg>
